<svg width="71" height="57" viewBox="0 0 71 57" fill="none" xmlns="http://www.w3.org/2000/svg">
<path d="M69.8096 8.77735C67.5684 4.91309 61.6533 4.04297 52.6709 6.24024C48.5124 3.02474 43.5354 1.03998 38.3053 0.511429C33.0753 -0.0171184 27.8018 0.931736 23.084 3.2502C18.3662 5.56867 14.3932 9.16381 11.6163 13.6272C8.83946 18.0906 7.37004 23.2433 7.375 28.5C7.37537 29.7058 7.45169 30.9103 7.60352 32.1064C-0.508789 40.5117 -0.391601 45.4922 1.19336 48.2227C2.6875 50.8125 5.80469 51.9375 9.90625 51.9375C12.754 51.8786 15.5849 51.4853 18.3408 50.7656C22.4998 53.978 27.4762 55.9599 32.7049 56.4864C37.9337 57.0129 43.2053 56.0628 47.9212 53.744C52.6372 51.4253 56.6085 47.8307 59.3844 43.3685C62.1602 38.9063 63.6294 33.7552 63.625 28.5C63.6256 27.3002 63.5502 26.1015 63.3994 24.9111C67.0615 21.1025 69.499 17.4844 70.3281 14.3877C70.8994 12.2432 70.7266 10.3565 69.8096 8.77735ZM35.5 5.06251C40.8084 5.06796 45.9582 6.87285 50.1086 10.1825C54.259 13.4922 57.1648 18.1111 58.3516 23.2852C53.3535 27.9902 46.5889 32.8154 40.167 36.5068C32.0957 41.1387 25.0937 44.0273 19.5098 45.6094C16.0705 42.4017 13.6767 38.2329 12.6398 33.6457C11.603 29.0585 11.9712 24.2654 13.6966 19.8904C15.4219 15.5154 18.4244 11.7612 22.3133 9.11652C26.2021 6.47183 30.7971 5.05919 35.5 5.06251ZM5.24805 45.8701C4.82031 45.1348 5.05762 43.749 5.89844 42.0615C6.72991 40.4805 7.74152 39.0009 8.91309 37.6524C10.0744 41.0171 11.8639 44.1308 14.1865 46.8281C9.13281 47.6777 5.98047 47.1357 5.24805 45.8701ZM35.5 51.9375C31.5482 51.9415 27.6605 50.9393 24.2031 49.0254C30.5491 46.781 36.6722 43.9504 42.4932 40.5703C48.8154 36.9404 54.4111 33.0059 58.9199 29.1211C58.7529 35.2241 56.2132 41.0215 51.8401 45.2819C47.467 49.5423 41.6053 51.9299 35.5 51.9375ZM65.7988 13.1748C65.3008 15.0234 63.9854 17.1387 62.0986 19.3652C60.9403 15.9965 59.1506 12.8793 56.8252 10.1807C60.9883 9.49219 64.8438 9.54493 65.7607 11.1299C66.0244 11.5898 66.0391 12.2783 65.7988 13.1748Z" fill="white"/>
</svg>
